<svg width="3175" height="444" viewBox="0 0 3175 444" fill="none" xmlns="http://www.w3.org/2000/svg">
<g clip-path="url(#clip0_429:184)">
<path fill-rule="evenodd" clip-rule="evenodd" d="M3083.01 281.65C3085.34 282.866 3087.62 284.151 3089.88 285.485C3099.38 291.088 3126.94 307.019 3147.08 315.351C3182.52 330.013 3174 401 3174 401H2396.45H2186.52H0V338.865C0 338.865 23.622 329.161 32.236 322.899C53.683 307.312 52.963 308.14 77.569 298.242C88.308 293.922 109.497 280.237 117.741 275.825L123.17 263.704C123.553 262.849 124.794 262.942 125.046 263.844L127.705 273.378C133.422 270 151.524 258.334 158.151 254.846C162.578 252.516 167.055 250.282 171.58 248.147C175.299 246.395 179.047 244.705 182.823 243.08C186.981 241.291 198.75 234.593 203.239 232.525L207.134 218.544C207.413 217.542 208.846 217.579 209.073 218.593L211.612 229.929C218.8 226.315 242.08 214.54 248.565 211.169C254.723 207.967 260.864 204.734 266.989 201.469C272.742 198.409 278.476 195.315 284.192 192.185L308.093 182.971C316.108 179.882 324.702 178.579 333.273 179.155C341.844 179.732 350.186 182.172 357.716 186.307L368.42 192.185L439.886 237.267L444.262 213.239C444.457 212.17 445.977 212.135 446.221 213.194L452.649 241.108L479.497 253.125L492.921 259.133L506.345 265.142L545.882 285.353L569.827 298.172L574.22 281.508C574.475 280.541 575.835 280.506 576.14 281.459L583.124 303.332C587.433 305.206 592.12 306.047 596.811 305.788C601.502 305.529 606.068 304.176 610.144 301.838L625.591 292.98L637.238 284.899C654.168 273.152 676.775 273.802 693.001 286.503L704.958 295.862L722.578 309.889C723.945 310.977 725.466 311.881 727.139 312.387C740.081 316.303 744.268 309.092 744.268 309.092C752.931 301.348 792.913 275.675 796.373 274.544C801.087 273.004 808.404 272.333 812.132 271.877C818.632 271.082 838.502 274.544 859.078 285.784C867.867 290.585 876.979 297.43 882.433 300.848C886.67 303.693 896.222 310.366 899.388 312.625C905.559 317.026 909.341 319.944 909.341 319.944H909.931L910.497 319.557C914.311 316.95 917.96 314.106 921.609 311.263C925.939 307.889 930.269 304.516 934.872 301.539C938.033 299.494 941.224 297.932 943.594 297.932C945.913 297.295 949.272 297.294 952.737 297.294C957.275 297.293 961.996 297.293 964.802 295.862C970.246 293.085 972.426 289.647 974.627 286.177C975.64 284.579 976.658 282.975 978 281.425C982.188 276.589 989.081 271.877 989.081 271.877C989.081 271.877 1004.91 265.057 1007.82 261.702C1012.44 262.745 1014.81 264.008 1016.94 265.142C1020.06 266.805 1022.65 268.19 1031.09 268.19C1035.79 268.19 1042.61 265.45 1049.62 262.637C1057.03 259.668 1064.63 256.618 1070.15 256.618C1075.15 256.618 1079.57 257.923 1084.3 259.317C1087.2 260.172 1090.21 261.06 1093.54 261.702L1097.92 256.681C1098.11 256.469 1098.39 256.344 1098.69 256.344C1099 256.344 1099.28 256.469 1099.46 256.681L1104.71 262.691C1110.77 263.087 1115.02 265.742 1119.34 268.447C1124.22 271.5 1129.2 274.617 1137.01 274.621C1144.97 274.621 1152.31 271.945 1159.51 269.32C1166.44 266.795 1173.23 264.318 1180.32 264.318C1187.93 264.318 1195.4 269.269 1203.05 274.342C1211.08 279.671 1219.32 285.134 1228.14 285.134C1235.99 285.134 1242.05 281.655 1248.66 277.867C1256.55 273.34 1265.21 268.372 1278.6 268.372C1291.96 268.372 1302.98 264.261 1313.04 260.505L1313.04 260.504C1321.51 257.345 1329.3 254.436 1337.25 254.436C1345.21 254.436 1352.24 256.605 1359.87 258.957C1368.01 261.466 1376.82 264.183 1388.15 264.697L1395.16 256.66C1395.34 256.448 1395.62 256.323 1395.93 256.323C1396.23 256.323 1396.52 256.448 1396.7 256.66L1402.39 263.189C1407.09 261.893 1411.9 259.963 1416.8 257.998C1425.97 254.318 1435.45 250.516 1445.04 250.516C1451.05 250.516 1457.37 252.924 1464.12 255.498C1471.87 258.449 1480.18 261.618 1489.26 261.618C1496.4 261.618 1502.79 264.524 1509.18 267.428C1510.73 268.133 1512.28 268.837 1513.84 269.499C1516.96 269.204 1520.07 268.779 1523.16 268.226L1520.63 258.644C1519.17 258.831 1517.7 258.923 1516.23 258.92C1508.24 258.92 1502.86 255.516 1502.86 250.943C1502.86 247.907 1504.64 245.39 1508.36 244.044C1504.36 242.455 1502.06 239.604 1502.06 235.264C1502.06 231.343 1506.41 228.374 1512.9 227.504C1512.68 226.758 1512.57 225.984 1512.57 225.205C1512.57 221.024 1519.75 219.134 1527.6 219.134C1535.45 219.134 1540.25 224.018 1540.25 228.107V228.458H1541.73C1544.41 228.515 1547.06 228.915 1549.64 229.645C1550.48 227.137 1553.15 225.222 1557.7 224.628C1556.75 223.36 1556.24 221.809 1556.28 220.221C1556.28 217.211 1560.27 215.53 1565.41 214.937C1564.54 214.166 1563.85 213.21 1563.39 212.14C1562.94 211.073 1562.72 209.917 1562.77 208.757C1562.77 204.484 1568.44 201.432 1576.32 201.432C1582.88 201.432 1586.97 205.153 1588.13 208.231C1592.44 208.306 1596.88 210.254 1596.88 213.507C1596.96 214.867 1596.63 216.22 1595.93 217.387C1596.75 217.659 1597.56 217.975 1598.35 218.332C1601.04 215.235 1607.3 215.862 1613.73 216.928C1623.24 212.791 1631.01 213.687 1640.68 214.8C1652.87 216.206 1668.08 217.959 1693.64 210.386C1697.05 209.374 1700 207.259 1702.58 204.808C1720.09 188.168 1749.02 183.458 1770.97 179.882C1782.05 178.079 1791.35 176.565 1796.52 173.955C1809.66 167.32 1818.46 162.879 1832.1 166.313C1837.96 171.197 1844.1 175.744 1850.49 179.934C1851.54 179.686 1852.62 179.56 1853.7 179.558C1859.44 179.558 1863.45 182.785 1866.19 186.557C1868.72 183.346 1872.36 180.787 1877.42 180.787C1885.33 180.787 1890 186.941 1892.53 192.184C1894.63 191.071 1896.97 190.496 1899.34 190.512C1908.65 190.512 1914.13 198.552 1917.09 205.328C1919.65 204.412 1922.35 203.328 1925.08 202.232C1932.48 199.264 1940.08 196.213 1945.6 196.213C1950.6 196.213 1955.03 197.518 1959.76 198.912C1962.66 199.767 1965.67 200.655 1969 201.297L1973.38 196.276C1973.56 196.064 1973.84 195.939 1974.15 195.939C1974.45 195.939 1974.74 196.064 1974.92 196.276L1980.16 202.286C1986.23 202.682 1990.47 205.337 1994.79 208.042C1999.67 211.096 2004.65 214.212 2012.47 214.216C2020.42 214.216 2027.76 211.54 2034.96 208.915C2041.89 206.39 2048.69 203.913 2055.77 203.913C2063.39 203.913 2070.85 208.865 2078.5 213.938C2086.54 219.266 2094.77 224.729 2103.6 224.729C2111.44 224.729 2117.51 221.25 2124.11 217.462C2132 212.935 2140.67 207.967 2154.06 207.967C2167.42 207.967 2178.43 203.857 2188.49 200.1H2188.5C2196.96 196.94 2204.75 194.032 2212.7 194.032C2220.66 194.032 2227.7 196.2 2235.32 198.552C2243.46 201.061 2252.27 203.778 2263.61 204.292L2270.61 196.255C2270.79 196.043 2271.08 195.918 2271.38 195.918C2271.68 195.918 2271.97 196.043 2272.15 196.255L2277.85 202.784C2282.54 201.488 2287.35 199.558 2292.25 197.593C2301.42 193.914 2310.9 190.111 2320.49 190.111C2326.5 190.111 2332.82 192.52 2339.58 195.093C2347.32 198.045 2355.64 201.213 2364.71 201.213C2371.85 201.213 2378.24 204.119 2384.64 207.024V207.026C2386.19 207.73 2387.74 208.433 2389.29 209.095C2392.42 208.799 2395.53 208.374 2398.62 207.821L2396.09 198.239C2394.63 198.426 2393.15 198.518 2391.68 198.515C2383.69 198.515 2378.32 195.112 2378.32 190.538C2378.32 187.502 2380.09 184.986 2383.81 183.639C2379.81 182.051 2377.51 179.199 2377.51 174.859C2377.51 170.938 2381.86 167.969 2388.35 167.099C2388.13 166.353 2388.02 165.579 2388.02 164.8C2388.02 160.62 2395.2 158.73 2403.05 158.73C2410.91 158.73 2415.71 163.613 2415.71 167.702V168.052H2417.18C2419.86 168.111 2422.52 168.51 2425.09 169.24C2425.93 166.732 2428.61 164.817 2433.15 164.223C2432.2 162.953 2431.7 161.403 2431.73 159.817C2431.73 156.807 2435.72 155.126 2440.87 154.532C2439.99 153.765 2439.3 152.808 2438.85 151.735C2438.39 150.668 2438.18 149.513 2438.22 148.352C2438.22 144.08 2443.89 141.028 2451.77 141.028C2458.34 141.028 2462.42 144.748 2463.58 147.826C2467.89 147.901 2472.33 149.849 2472.33 153.102C2472.41 154.462 2472.08 155.814 2471.38 156.982C2472.2 157.254 2473.01 157.57 2473.8 157.927C2476.5 154.83 2482.76 155.457 2489.18 156.523C2498.7 152.387 2506.47 153.282 2516.13 154.396C2528.33 155.801 2548.34 170.729 2573.89 163.156C2573.89 163.156 2613.66 132.358 2682.87 103.029C2696.02 96.3945 2737.59 124.002 2737.59 124.002C2737.59 124.002 2805.98 158.863 2808.72 162.634C2808.22 162.058 2809.22 163.203 2808.72 162.634C2809.51 162.277 2810.32 161.962 2811.14 161.689C2810.44 160.521 2810.11 159.169 2810.19 157.809C2810.19 154.557 2814.63 152.609 2818.94 152.533C2820.1 149.456 2824.18 145.735 2830.75 145.735C2838.63 145.735 2844.3 148.787 2844.3 153.06C2844.34 154.22 2844.13 155.375 2843.67 156.442C2843.22 157.513 2842.53 158.468 2841.66 159.239C2846.8 159.833 2850.79 161.514 2850.79 164.524C2850.82 166.11 2850.32 167.661 2849.37 168.931C2853.91 169.524 2856.59 171.439 2857.43 173.948C2860.01 173.217 2862.66 172.818 2865.34 172.76H2866.81V172.41C2866.81 168.32 2871.61 163.437 2879.47 163.437C2887.32 163.437 2894.5 165.327 2894.5 169.507C2894.5 170.286 2894.39 171.06 2894.17 171.807C2900.66 172.677 2905.01 175.645 2905.01 179.567C2905.01 183.907 2902.71 186.757 2898.71 188.347C2902.43 189.693 2904.2 192.21 2904.2 195.245C2904.2 199.819 2898.83 203.222 2890.84 203.222C2889.37 203.225 2887.89 203.133 2886.43 202.946L2883.9 212.529C2890.6 213.727 2897.39 214.323 2904.19 214.31C2941.77 214.31 2969.26 229.942 2995.81 245.04C3004.21 249.815 3052.3 265.882 3060.8 270.04L3083.01 281.65ZM2881.63 208.833L2883.76 202.386C2882.11 202.015 2880.57 201.249 2879.28 200.154L2881.63 208.833ZM2876.46 198.841C2875.7 199.017 2874.93 199.148 2874.15 199.234C2874.51 199.759 2874.7 200.375 2874.71 201.006C2874.75 201.808 2874.61 202.609 2874.31 203.353C2874 204.099 2873.54 204.77 2872.95 205.321L2878.71 211.342L2876.46 198.841ZM2873.55 210.079L2870.94 206.6C2869.47 207.187 2867.92 207.55 2866.35 207.679C2868.68 208.549 2871.08 209.36 2873.55 210.079ZM2846.29 183.254H2845.6C2840.12 183.254 2836.06 182.05 2834.38 179.759L2833.41 183.48C2833.88 184.024 2834.14 184.712 2834.16 185.428C2834.18 186.328 2833.98 187.22 2833.58 188.028C2839.88 193.421 2846.72 198.133 2854.01 202.085C2853.96 201.734 2853.96 201.383 2853.96 201.023C2853.96 197.871 2857.72 195.856 2861.84 195.362C2861.59 194.468 2861.47 193.541 2861.49 192.611C2861.49 192.407 2861.51 192.203 2861.54 192.001C2852.13 191.683 2846.89 188.171 2846.29 183.254ZM2833.44 174.006C2832.85 173.978 2832.25 173.919 2831.67 173.831C2830.91 174.421 2830.09 174.928 2829.22 175.344L2830.91 181.532L2833.44 174.006ZM2827.68 180.52L2826.93 176.34V176.322C2826.01 176.615 2825.08 176.849 2824.14 177.025C2824.48 177.818 2824.65 178.672 2824.65 179.533V179.826L2824.99 180.152C2825.89 180.205 2826.79 180.328 2827.68 180.52ZM2400.89 204.126L2398.76 197.679C2400.41 197.31 2401.95 196.544 2403.24 195.446L2400.89 204.126ZM2406.06 194.133C2406.82 194.309 2407.59 194.44 2408.37 194.526C2408.01 195.049 2407.82 195.666 2407.81 196.299C2407.77 197.101 2407.91 197.901 2408.21 198.646C2408.52 199.391 2408.98 200.062 2409.57 200.614L2403.81 206.634L2406.06 194.133ZM2408.97 205.371L2411.58 201.893C2413.05 202.479 2414.6 202.843 2416.17 202.972C2413.84 203.841 2411.44 204.652 2408.97 205.371ZM2436.23 178.547H2436.92C2442.4 178.547 2446.46 177.343 2448.14 175.052L2449.12 178.772C2448.65 179.315 2448.38 180.004 2448.36 180.721C2448.34 181.621 2448.54 182.512 2448.94 183.321C2442.65 188.716 2435.8 193.428 2428.51 197.378C2428.57 197.026 2428.57 196.675 2428.57 196.316C2428.57 193.163 2424.8 191.148 2420.68 190.655C2420.93 189.76 2421.05 188.833 2421.03 187.904C2421.03 187.699 2421.02 187.495 2420.98 187.294C2430.39 186.976 2435.63 183.464 2436.23 178.547ZM2449.08 169.299C2449.68 169.271 2450.27 169.212 2450.85 169.123C2451.61 169.711 2452.43 170.219 2453.3 170.637L2451.61 176.824L2449.08 169.299ZM2454.84 175.813L2455.59 171.632V171.615C2456.51 171.907 2457.44 172.142 2458.38 172.317C2458.04 173.111 2457.87 173.964 2457.87 174.826V175.119L2457.53 175.445C2456.63 175.498 2455.73 175.621 2454.84 175.813ZM1525.44 264.53L1523.31 258.083C1524.96 257.714 1526.5 256.948 1527.79 255.851L1525.44 264.53ZM1530.6 254.538C1531.37 254.714 1532.14 254.845 1532.92 254.931C1532.56 255.455 1532.37 256.072 1532.36 256.704C1532.32 257.508 1532.46 258.31 1532.76 259.055C1533.06 259.799 1533.53 260.47 1534.11 261.018L1528.36 267.039L1530.6 254.538ZM1533.51 265.776L1536.13 262.298C1537.6 262.884 1539.14 263.248 1540.72 263.377C1538.35 264.266 1535.94 265.066 1533.51 265.776ZM1560.78 238.952H1561.46C1566.95 238.952 1571 237.748 1572.68 235.457L1573.66 239.178C1573.19 239.72 1572.93 240.409 1572.91 241.126C1572.89 242.026 1573.09 242.917 1573.48 243.726C1567.19 249.119 1560.35 253.831 1553.06 257.782C1553.11 257.431 1553.11 257.08 1553.11 256.721C1553.11 253.568 1549.35 251.553 1545.22 251.06C1545.48 250.166 1545.6 249.239 1545.58 248.309C1545.58 248.105 1545.56 247.9 1545.53 247.698C1554.93 247.38 1560.17 243.868 1560.78 238.952ZM1573.63 229.704C1574.22 229.676 1574.81 229.617 1575.4 229.528C1576.16 230.116 1576.98 230.623 1577.85 231.042L1576.16 237.229L1573.63 229.704ZM1579.39 236.217L1580.14 232.037V232.02C1581.05 232.312 1581.98 232.547 1582.92 232.722C1582.58 233.515 1582.41 234.369 1582.42 235.231V235.523L1582.08 235.85C1581.18 235.904 1580.28 236.026 1579.39 236.217Z" fill="#95CDDE"/>
<path fill-rule="evenodd" clip-rule="evenodd" d="M6814.88 328.65C6820.03 329.866 6825.07 331.151 6830.07 332.485C6851.07 338.088 6911.99 354.019 6956.51 362.351C7034.85 377.013 7016.01 448 7016.01 448H5297.27H4833.22H0V385.865C0 385.865 52.2156 376.161 71.2566 369.899C118.664 354.312 117.073 355.14 171.463 345.242C195.202 340.922 242.039 327.237 260.262 322.825L272.263 310.704C273.11 309.849 275.853 309.942 276.41 310.844L282.287 320.378C294.925 317 334.938 305.334 349.587 301.846C359.373 299.516 369.27 297.282 379.271 295.147C387.491 293.394 395.777 291.705 404.124 290.08C413.315 288.291 439.33 281.593 449.253 279.525L457.862 265.544C458.479 264.542 461.647 264.579 462.148 265.593L467.761 276.929C483.65 273.315 535.109 261.54 549.444 258.169C563.055 254.967 576.631 251.734 590.17 248.469C602.886 245.409 615.562 242.314 628.196 239.185L681.029 229.971C698.747 226.881 717.742 225.579 736.688 226.155C755.635 226.731 774.074 229.172 790.719 233.307L814.379 239.185L972.352 284.267L982.025 260.239C982.456 259.17 985.816 259.135 986.356 260.194L1000.56 288.108L1059.91 300.125L1089.58 306.133L1119.26 312.142L1206.65 332.353L1259.58 345.172L1269.29 328.508C1269.86 327.541 1272.86 327.506 1273.54 328.459L1288.97 350.332C1298.5 352.206 1308.86 353.047 1319.23 352.788C1329.6 352.528 1339.69 351.176 1348.7 348.838L1382.85 339.98L1408.59 331.899C1446.02 320.152 1495.99 320.802 1531.85 333.503L1558.28 342.862L1597.23 356.889C1600.25 357.977 1603.62 358.881 1607.31 359.387C1635.92 363.303 1645.18 356.092 1645.18 356.092C1664.33 348.348 1752.71 322.675 1760.35 321.544C1770.77 320.004 1786.95 319.333 1795.19 318.877C1809.56 318.082 1853.48 321.544 1898.96 332.784C1918.39 337.585 1938.53 344.43 1950.59 347.848C1959.95 350.693 1981.07 357.366 1988.07 359.625C2001.71 364.026 2010.07 366.944 2010.07 366.944H2011.37L2012.62 366.557C2021.05 363.95 2029.12 361.106 2037.18 358.263C2046.76 354.889 2056.33 351.516 2066.5 348.539C2073.49 346.494 2080.54 344.932 2085.78 344.932C2090.91 344.295 2098.33 344.294 2105.99 344.294C2116.02 344.293 2126.46 344.293 2132.66 342.862C2144.69 340.085 2149.51 336.647 2154.38 333.177C2156.62 331.579 2158.87 329.975 2161.83 328.425C2171.09 323.589 2186.33 318.877 2186.33 318.877C2186.33 318.877 2221.32 312.057 2227.74 308.702C2237.96 309.745 2243.2 311.008 2247.9 312.142C2254.8 313.805 2260.54 315.19 2279.19 315.19C2289.57 315.19 2304.66 312.45 2320.16 309.637C2336.52 306.668 2353.32 303.618 2365.52 303.618C2376.58 303.618 2386.36 304.923 2396.81 306.317C2403.22 307.172 2409.88 308.06 2417.24 308.702L2426.92 303.681C2427.32 303.469 2427.95 303.344 2428.62 303.344C2429.3 303.344 2429.93 303.469 2430.33 303.681L2441.92 309.691C2455.32 310.087 2464.7 312.742 2474.26 315.447C2485.04 318.5 2496.05 321.617 2513.32 321.621C2530.91 321.621 2547.14 318.945 2563.06 316.32C2578.37 313.795 2593.39 311.318 2609.05 311.318C2625.88 311.318 2642.38 316.269 2659.29 321.342C2677.05 326.671 2695.26 332.134 2714.76 332.134C2732.11 332.134 2745.52 328.655 2760.11 324.867C2777.56 320.34 2796.71 315.372 2826.31 315.372C2855.84 315.372 2880.18 311.261 2902.43 307.505L2902.43 307.504C2921.14 304.345 2938.36 301.436 2955.93 301.436C2973.54 301.436 2989.09 303.605 3005.94 305.957C3023.93 308.466 3043.41 311.183 3068.46 311.697L3083.94 303.66C3084.34 303.448 3084.97 303.323 3085.64 303.323C3086.31 303.323 3086.95 303.448 3087.35 303.66L3099.94 310.189C3110.31 308.893 3120.95 306.963 3131.78 304.998C3152.06 301.318 3173.01 297.516 3194.2 297.516C3207.49 297.516 3221.46 299.924 3236.39 302.498C3253.51 305.449 3271.89 308.618 3291.95 308.618C3307.73 308.618 3321.87 311.524 3335.99 314.428C3339.42 315.133 3342.84 315.837 3346.29 316.499C3353.2 316.204 3360.07 315.779 3366.9 315.226L3361.3 305.644C3358.08 305.831 3354.82 305.923 3351.57 305.92C3333.91 305.92 3322.03 302.516 3322.03 297.943C3322.03 294.907 3325.95 292.39 3334.17 291.044C3325.33 289.455 3320.24 286.604 3320.24 282.264C3320.24 278.343 3329.86 275.374 3344.2 274.504C3343.72 273.758 3343.47 272.983 3343.48 272.205C3343.48 268.024 3359.34 266.134 3376.71 266.134C3394.07 266.134 3404.68 271.018 3404.68 275.107V275.458H3407.94C3413.85 275.515 3419.73 275.915 3425.41 276.645C3427.28 274.137 3433.19 272.222 3443.24 271.628C3441.13 270.36 3440.02 268.808 3440.09 267.221C3440.09 264.211 3448.91 262.53 3460.29 261.937C3458.36 261.165 3456.84 260.21 3455.83 259.14C3454.82 258.073 3454.35 256.917 3454.45 255.757C3454.45 251.484 3466.98 248.432 3484.4 248.432C3498.9 248.432 3507.93 252.153 3510.5 255.231C3520.03 255.306 3529.84 257.254 3529.84 260.507C3530.02 261.867 3529.29 263.22 3527.74 264.387C3529.56 264.659 3531.34 264.975 3533.09 265.332C3539.05 262.235 3552.88 262.862 3567.08 263.928C3588.11 259.791 3605.29 260.687 3626.66 261.8C3653.61 263.206 3687.23 264.959 3743.73 257.386C3751.27 256.374 3757.79 254.259 3763.49 251.808C3802.2 235.168 3866.15 230.458 3914.67 226.882C3939.16 225.079 3959.72 223.565 3971.14 220.955C4000.19 214.32 4019.64 209.879 4049.79 213.313C4062.75 218.197 4076.32 222.744 4090.44 226.934C4092.76 226.686 4095.15 226.56 4097.54 226.558C4110.23 226.558 4119.09 229.785 4125.15 233.557C4130.74 230.346 4138.79 227.787 4149.97 227.787C4167.46 227.787 4177.78 233.941 4183.37 239.184C4188 238.071 4193.18 237.496 4198.42 237.512C4219 237.512 4231.12 245.552 4237.66 252.328C4243.32 251.412 4249.29 250.328 4255.32 249.232C4271.68 246.264 4288.48 243.213 4300.68 243.213C4311.73 243.213 4321.52 244.518 4331.98 245.912C4338.39 246.767 4345.04 247.655 4352.4 248.297L4362.09 243.276C4362.48 243.064 4363.1 242.939 4363.79 242.939C4364.45 242.939 4365.09 243.064 4365.49 243.276L4377.07 249.286C4390.49 249.682 4399.86 252.337 4409.41 255.042C4420.2 258.096 4431.21 261.212 4448.49 261.216C4466.07 261.216 4482.29 258.54 4498.21 255.915C4513.53 253.39 4528.56 250.913 4544.21 250.913C4561.05 250.913 4577.54 255.865 4594.45 260.938C4612.22 266.266 4630.41 271.729 4649.93 271.729C4667.26 271.729 4680.68 268.25 4695.27 264.462C4712.71 259.935 4731.88 254.967 4761.47 254.967C4791.01 254.967 4815.34 250.857 4837.58 247.1H4837.6C4856.3 243.94 4873.52 241.032 4891.09 241.032C4908.69 241.032 4924.25 243.2 4941.1 245.552C4959.09 248.061 4978.56 250.778 5003.63 251.292L5019.1 243.255C5019.5 243.043 5020.14 242.918 5020.8 242.918C5021.47 242.918 5022.11 243.043 5022.51 243.255L5035.11 249.784C5045.47 248.488 5056.11 246.558 5066.94 244.593C5087.21 240.914 5108.16 237.111 5129.36 237.111C5142.65 237.111 5156.62 239.52 5171.56 242.093C5188.67 245.045 5207.06 248.213 5227.11 248.213C5242.89 248.213 5257.02 251.119 5271.16 254.024V254.026C5274.59 254.73 5278.01 255.433 5281.44 256.095C5288.36 255.799 5295.23 255.374 5302.06 254.821L5296.47 245.239C5293.24 245.426 5289.97 245.518 5286.72 245.515C5269.06 245.515 5257.19 242.112 5257.19 237.538C5257.19 234.502 5261.1 231.986 5269.33 230.639C5260.49 229.051 5255.4 226.199 5255.4 221.859C5255.4 217.938 5265.02 214.969 5279.36 214.099C5278.88 213.353 5278.63 212.579 5278.63 211.8C5278.63 207.62 5294.5 205.73 5311.86 205.73C5329.23 205.73 5339.84 210.613 5339.84 214.702V215.052H5343.09C5349.01 215.111 5354.89 215.51 5360.57 216.24C5362.43 213.732 5368.36 211.817 5378.39 211.223C5376.29 209.953 5375.19 208.403 5375.25 206.817C5375.25 203.807 5384.07 202.126 5395.46 201.532C5393.52 200.765 5391.99 199.808 5390.99 198.735C5389.98 197.668 5389.5 196.513 5389.6 195.352C5389.6 191.08 5402.13 188.028 5419.55 188.028C5434.07 188.028 5443.09 191.748 5445.66 194.826C5455.18 194.901 5465 196.849 5465 200.102C5465.18 201.462 5464.44 202.814 5462.9 203.982C5464.71 204.254 5466.5 204.57 5468.25 204.927C5474.22 201.83 5488.05 202.457 5502.24 203.523C5523.29 199.387 5540.46 200.282 5561.82 201.396C5588.78 202.801 5633.02 217.729 5689.49 210.156C5689.49 210.156 5777.4 179.358 5930.39 150.029C5959.46 143.394 6051.35 171.002 6051.35 171.002C6051.35 171.002 6202.52 205.863 6208.58 209.634C6207.47 209.058 6209.68 210.203 6208.58 209.634C6210.32 209.277 6212.11 208.962 6213.92 208.689C6212.38 207.521 6211.65 206.169 6211.83 204.809C6211.83 201.557 6221.64 199.609 6231.17 199.533C6233.73 196.456 6242.75 192.735 6257.27 192.735C6274.69 192.735 6287.22 195.787 6287.22 200.06C6287.32 201.22 6286.84 202.375 6285.83 203.442C6284.83 204.513 6283.31 205.468 6281.39 206.239C6292.75 206.833 6301.57 208.514 6301.57 211.524C6301.64 213.11 6300.53 214.661 6298.43 215.931C6308.47 216.524 6314.39 218.439 6316.25 220.948C6321.94 220.217 6327.82 219.818 6333.73 219.76H6336.98V219.41C6336.98 215.32 6347.59 210.437 6364.97 210.437C6382.32 210.437 6398.19 212.327 6398.19 216.507C6398.19 217.286 6397.95 218.06 6397.46 218.807C6411.81 219.677 6421.42 222.645 6421.42 226.567C6421.42 230.907 6416.34 233.757 6407.5 235.347C6415.72 236.693 6419.63 239.21 6419.63 242.245C6419.63 246.819 6407.76 250.222 6390.1 250.222C6386.85 250.225 6383.58 250.133 6380.35 249.946L6374.76 259.529C6389.57 260.727 6404.58 261.323 6419.61 261.31C6502.68 261.31 6563.44 276.942 6622.13 292.04C6640.7 296.815 6747 312.882 6765.79 317.04L6814.88 328.65ZM6369.74 255.833L6374.45 249.386C6370.8 249.015 6367.4 248.249 6364.55 247.154L6369.74 255.833ZM6358.31 245.841C6356.63 246.017 6354.93 246.148 6353.21 246.234C6354 246.759 6354.42 247.375 6354.44 248.006C6354.53 248.808 6354.22 249.609 6353.56 250.353C6352.88 251.099 6351.85 251.769 6350.55 252.321L6363.29 258.342L6358.31 245.841ZM6351.88 257.079L6346.11 253.6C6342.86 254.187 6339.44 254.55 6335.97 254.679C6341.12 255.549 6346.42 256.36 6351.88 257.079ZM6291.62 230.254H6290.1C6277.98 230.254 6269.01 229.05 6265.3 226.759L6263.15 230.48C6264.19 231.024 6264.77 231.712 6264.81 232.428C6264.85 233.328 6264.41 234.22 6263.53 235.028C6277.44 240.421 6292.58 245.133 6308.69 249.085C6308.58 248.734 6308.58 248.383 6308.58 248.023C6308.58 244.871 6316.89 242.856 6326 242.362C6325.44 241.467 6325.18 240.541 6325.22 239.611C6325.22 239.407 6325.27 239.203 6325.33 239.001C6304.53 238.683 6292.95 235.171 6291.62 230.254ZM6263.22 221.006C6261.91 220.978 6260.59 220.919 6259.31 220.831C6257.62 221.42 6255.81 221.928 6253.89 222.344L6257.63 228.532L6263.22 221.006ZM6250.49 227.52L6248.83 223.34V223.322C6246.79 223.615 6244.74 223.849 6242.66 224.025C6243.41 224.818 6243.79 225.672 6243.79 226.533V226.826L6244.54 227.152C6246.53 227.205 6248.52 227.328 6250.49 227.52ZM5307.08 251.126L5302.37 244.679C5306.03 244.31 5309.43 243.543 5312.28 242.446L5307.08 251.126ZM5318.51 241.133C5320.19 241.309 5321.89 241.44 5323.62 241.526C5322.83 242.049 5322.4 242.666 5322.38 243.299C5322.29 244.101 5322.6 244.901 5323.26 245.646C5323.95 246.391 5324.96 247.062 5326.27 247.614L5313.54 253.634L5318.51 241.133ZM5324.94 252.371L5330.71 248.893C5333.96 249.479 5337.39 249.843 5340.86 249.972C5335.71 250.841 5330.4 251.652 5324.94 252.371ZM5385.2 225.547H5386.72C5398.84 225.547 5407.81 224.343 5411.53 222.052L5413.69 225.772C5412.65 226.315 5412.06 227.004 5412.01 227.721C5411.97 228.621 5412.41 229.512 5413.29 230.321C5399.38 235.716 5384.24 240.428 5368.14 244.378C5368.27 244.026 5368.27 243.675 5368.27 243.316C5368.27 240.163 5359.93 238.148 5350.83 237.655C5351.38 236.76 5351.65 235.833 5351.6 234.904C5351.6 234.699 5351.58 234.495 5351.49 234.294C5372.29 233.976 5383.87 230.464 5385.2 225.547ZM5413.6 216.299C5414.93 216.271 5416.24 216.212 5417.52 216.123C5419.2 216.711 5421.01 217.219 5422.93 217.637L5419.2 223.824L5413.6 216.299ZM5426.34 222.813L5427.99 218.632V218.615C5430.03 218.907 5432.08 219.142 5434.16 219.317C5433.41 220.11 5433.03 220.964 5433.03 221.826V222.119L5432.28 222.445C5430.29 222.498 5428.3 222.621 5426.34 222.813ZM3371.93 311.53L3367.21 305.083C3370.87 304.714 3374.27 303.948 3377.12 302.851L3371.93 311.53ZM3383.35 301.538C3385.03 301.714 3386.73 301.845 3388.45 301.931C3387.67 302.455 3387.24 303.072 3387.22 303.704C3387.14 304.508 3387.44 305.309 3388.11 306.054C3388.78 306.799 3389.8 307.469 3391.1 308.018L3378.38 314.039L3383.35 301.538ZM3389.78 312.776L3395.56 309.298C3398.8 309.884 3402.22 310.248 3405.7 310.377C3400.46 311.266 3395.15 312.066 3389.78 312.776ZM3450.05 285.952H3451.56C3463.68 285.952 3472.65 284.748 3476.36 282.457L3478.52 286.178C3477.48 286.72 3476.9 287.409 3476.86 288.126C3476.82 289.026 3477.25 289.917 3478.13 290.726C3464.22 296.119 3449.09 300.831 3432.99 304.782C3433.1 304.431 3433.1 304.08 3433.1 303.721C3433.1 300.568 3424.78 298.553 3415.66 298.06C3416.22 297.166 3416.48 296.239 3416.44 295.309C3416.45 295.105 3416.41 294.9 3416.33 294.698C3437.12 294.38 3448.7 290.868 3450.05 285.952ZM3478.45 276.704C3479.76 276.676 3481.07 276.617 3482.36 276.528C3484.04 277.116 3485.86 277.623 3487.77 278.042L3484.04 284.229L3478.45 276.704ZM3491.19 283.217L3492.84 279.037V279.02C3494.86 279.312 3496.92 279.547 3499 279.722C3498.25 280.515 3497.87 281.369 3497.88 282.231V282.523L3497.13 282.85C3495.13 282.903 3493.14 283.026 3491.19 283.217Z" fill="#003543"/>
</g>
<defs>
<clipPath id="clip0_429:184">
<rect width="3175" height="444" fill="white"/>
</clipPath>
</defs>
</svg>
