<svg width="905" height="199" viewBox="0 0 905 199" fill="none" xmlns="http://www.w3.org/2000/svg">
<path d="M764.75 27.2342L795.055 69.8936C797.758 75.1341 825.756 115.119 827.289 117.335H795.055L761.633 24.9267C762.877 25.2995 763.977 26.1107 764.75 27.2342Z" fill="#00CFDC"/>
<path d="M755.348 27.2333C756.813 25.1295 759.301 24.2146 761.633 24.9258L796.551 117.158H767.358H692.928L755.348 27.2333Z" fill="#33E3D8"/>
<path opacity="0.75" d="M692.928 117.157H742.15L780.651 75.5842L770.721 48.4752L724.05 72.3249L692.928 117.157Z" fill="#33E3D8"/>
<path d="M860.51 2.54647L890.174 45.6024C890.174 45.6024 897.477 58.2188 904.849 68.9299C904.849 73.1491 904.849 80.4161 904.849 84.2774C904.855 90.3943 904.849 91.857 904.849 92.6467H890.815L857.393 0.238922C858.638 0.611749 859.731 1.42299 860.51 2.54647Z" fill="#00CFDC"/>
<path d="M851.109 2.54558C852.573 0.441871 855.062 -0.473108 857.393 0.23804L892.305 92.4703H863.112H788.689L851.109 2.54558Z" fill="#33E3D8"/>
<path opacity="0.75" d="M788.689 92.4697H837.911L876.411 50.8969L866.481 23.7876L819.811 47.6373L788.689 92.4697Z" fill="#33E3D8"/>
<path d="M0.198102 163.222C4.99849 159.478 14.9802 152.179 19.0949 151.666C21.0204 151.425 24.4595 151.364 28.198 151.299C34.4461 151.189 41.5305 151.064 43.783 150.06C46.6632 148.777 52.8695 147.601 55.6126 147.173C60.0702 145.035 69.8082 140.693 73.1001 140.436C74.5525 140.323 76.3261 139.329 78.5113 138.105C82.5134 135.863 87.8962 132.848 95.2161 133.055C102.173 133.253 109.323 135.997 114.757 138.082C118.161 139.389 120.891 140.436 122.476 140.436C124.473 140.436 130.224 138.698 136.145 136.909C142.425 135.011 148.896 133.055 151.278 133.055C153.491 133.055 157.348 131.149 161.446 129.124C165.923 126.912 170.687 124.558 173.909 124.391C176.349 124.264 178.145 122.333 180.219 120.103C183.394 116.69 187.22 112.577 194.997 113.16C201.835 113.672 207.073 114.729 210.943 115.509C214.35 116.197 216.697 116.67 218.141 116.37C219.112 116.168 220.337 115.775 221.72 115.333C224.735 114.367 228.503 113.16 232.029 113.16C234.349 113.16 239.182 111.005 244.355 108.698C250.648 105.892 257.444 102.861 260.831 103.213C263.877 103.53 268.048 101.191 272.42 98.7391C276.91 96.2218 281.611 93.5865 285.519 93.5865C287.171 93.5865 289.2 93.7334 291.519 93.9016C300.037 94.5187 312.481 95.4202 324.608 90.3767C331.39 87.5562 341.45 81.3263 351.164 75.3105C363.553 67.6386 375.38 60.3148 379.128 60.8543C384.477 61.6244 406.243 73.4881 416.458 79.3238C419.117 79.0086 425.517 79.0275 429.842 81.6226C432.209 83.042 436.769 86.5286 441.325 90.0114C447.177 94.4848 453.022 98.9526 454.198 99.026L454.29 99.0317C456.434 99.1648 461.416 99.4736 468.836 103.331C472.517 105.245 475.742 107.63 478.33 109.545C481.036 111.547 483.047 113.036 484.162 112.936C484.929 112.868 486.888 112.007 489.365 110.92C493.935 108.912 500.266 106.132 504.105 106.132C510.026 106.132 516.882 105.354 523.737 101.077C524.678 100.491 525.629 99.8823 526.58 99.274C532.562 95.4484 538.499 91.6517 541.188 93.5865C544.304 95.8282 549.913 99.026 552.095 99.026C552.232 99.026 552.404 99.0248 552.606 99.0242C555.612 99.0103 565.281 98.9645 566.741 101.077C567.493 102.165 569.772 103.11 572.453 104.036C579.724 104.559 587.143 105.535 594.76 106.555C595.254 106.528 595.721 106.493 596.158 106.451L599.716 102.535C599.867 102.37 600.116 102.257 600.39 102.228C600.663 102.199 600.93 102.258 601.111 102.388L604.083 104.522L609.169 98.9231C609.318 98.7567 609.567 98.6425 609.842 98.613C610.117 98.5841 610.384 98.645 610.564 98.7762L616.402 102.961C628.465 100.081 639.672 96.0768 650.456 92.2217L650.463 92.2205C665.106 86.9881 678.976 82.0319 693.161 80.5379C706.503 79.143 725.351 82.7959 744.941 86.5932C766.158 90.7063 787.947 96.9984 804.859 95.218C818.353 93.7836 836.082 92.6197 849.688 86.4319C866.424 84.0753 886.083 73.6017 897.528 72.3964C898.891 72.2533 896.302 72.6136 897.528 72.3964C900.01 71.957 893.65 72.2715 897.528 72.3964L904.818 160.466V198.996H879.509C862.452 198.996 843.579 198.996 825.561 198.996H700.501C684.199 198.996 674.225 198.996 670.039 198.996H599.895C587.346 198.996 572.759 198.996 556.993 198.996H451.455C434.937 198.996 426.035 198.996 416.597 198.996C409.411 198.996 386.566 198.996 376.484 198.996H338.087H292.715C284.809 198.996 278.238 198.996 272.42 198.996C261.4 198.996 237.771 198.996 221.72 198.996H113.411C97.2416 198.996 91.6256 198.996 83.1544 198.996C77.4542 198.996 66.2548 198.996 57.7308 198.996H28.198C27.7604 198.996 14.6063 198.996 12.8669 198.996H3.63296C3.34096 198.996 1.32375 198.996 0.198045 198.996C0.198045 196.814 0.198045 195.394 0.198045 195.394C0.122555 194.678 0.330041 193.963 0.198045 192.712C0.046481 191.277 0.198045 190.122 0.198102 189.108C0.198045 187.759 0.198045 186.26 0.198112 184.897C0.198045 182.58 0.198045 181.853 0.198045 181.035L0.198102 178.899C0.198102 178.899 0.360821 175.942 0.198102 174.4V170.083C0.198102 170.083 -0.247628 163.57 0.198102 163.222Z" fill="#B7E1ED"/>
<path d="M0.278641 174.86H26.3483L38.5978 181.067H53.6742L68.4362 174.86L82.8848 171.182L110.211 167.043L134.081 171.182L169.26 169.113L201.611 167.043H220.457L242.443 161.756L264.744 158.767L280.448 150.951L298.666 147.962L312.486 141.294H325.05L341.382 135.087L349.771 131.768C351.907 130.923 354.183 130.489 356.48 130.489H364.46C366.442 130.489 368.412 130.801 370.296 131.414L378.836 134.193C380.658 134.785 382.562 135.087 384.477 135.087H389.423C390.885 135.087 392.333 134.804 393.687 134.253L400.21 131.601C402.016 130.867 403.946 130.489 405.895 130.489H410.952C413.136 130.489 415.305 130.856 417.367 131.575L425.16 134.291C426.645 134.809 428.255 134.849 429.764 134.408L440.812 131.173C442.361 130.719 443.967 130.489 445.582 130.489H461.099C461.683 130.489 462.256 130.652 462.754 130.96L465.218 132.486C465.754 132.818 466.421 132.86 466.995 132.597L479.783 126.748C480.686 126.335 481.667 126.121 482.66 126.121H499.056L528.895 127.96L545.542 122.902L569.085 114.286C573.859 112.539 578.942 111.792 584.018 112.09L623.122 114.396L626.486 114.279C630.056 112.259 634.424 109.685 638.653 107.194C646.063 102.829 653.039 98.7178 654.529 98.2859C654.793 98.2087 655.126 98.107 655.515 97.9852C659.852 96.6374 671.831 92.911 688.956 95.1628C692.319 95.6054 695.386 96.004 698.176 96.3549L706.359 91.8652H728.029L738.229 94.4076C739.831 94.2206 741.503 93.132 742.326 92.9418C742.527 92.8953 742.867 92.81 743.326 92.6957C747.002 91.7786 758.095 89.0089 763.368 89.6693C767.17 90.1458 771.161 89.7377 774.02 89.4458C775.623 89.282 776.867 89.1545 777.527 89.2393C777.879 89.2845 778.639 89.3994 779.651 89.5532C783.919 90.201 792.661 91.5281 794.006 91.1113C794.489 90.96 795.401 90.4559 796.632 89.776C799.599 88.1369 804.413 85.4771 809.566 84.2881C811.842 84.4652 816.844 84.7056 818.604 84.2473C818.855 84.1814 819.144 84.1023 819.459 84.015C821.922 83.3383 826.177 82.1682 829.275 82.9717C832.776 83.8795 839.488 85.0358 842.109 84.4978C844.095 84.0891 849.437 84.3346 852.246 84.533L852.824 84.5204C853.635 84.2718 854.747 83.9755 856.017 83.7012L904.862 68.9218V199H0.278641V174.86Z" fill="#E5F9FF"/>
<path d="M897.961 96.7372C895.944 96.8044 867.619 89.3215 852.717 84.5317C853.654 84.2699 854.597 83.8656 855.847 83.6798C857.004 83.5072 872.759 77.998 876.141 77.6182C877.743 77.4386 902.568 68.7379 904.918 69.0009C906.15 69.1384 892.971 80.3527 893.266 81.0388C895.039 85.1777 898.778 96.7102 897.961 96.7372Z" fill="#CCE6EE"/>
<path d="M832.223 97.1547C830.212 97.2219 821.495 89.9317 806.594 85.1412C807.618 84.5606 808.718 84.3289 810.132 84.3295C811.829 84.4199 814.732 84.71 818.107 84.3302C819.71 84.15 822.714 82.5668 825.065 82.8298C826.29 82.9673 827.886 85.6114 828.176 86.2976C829.948 90.4364 833.04 97.1277 832.223 97.1547Z" fill="#CCE6EE"/>
<path d="M779.211 97.2244C778.903 95.0228 777.948 92.2732 777.357 89.2531C778.275 89.2964 789.939 91.132 793.848 91.132C793.848 91.132 794.603 91.1797 791.353 99.6274C788.11 108.075 783.749 108.007 781.87 108.007C780.399 104.931 779.211 102.074 779.211 97.2244Z" fill="#CCE6EE"/>
<path d="M626.147 126.87C624.133 126.937 590.587 117.334 575.689 112.544C578.746 110.814 608.937 113.328 623.588 114.392L626.463 114.266C628.235 118.405 626.965 126.843 626.147 126.87Z" fill="#CCE6EE"/>
<path d="M481.538 126.2C480.832 126.169 471.34 130.558 466.682 132.757C473.581 136.603 474.486 139.993 478.308 146.305C482.632 137.619 482.421 126.238 481.538 126.2Z" fill="#CCE6EE"/>
<path d="M351.652 131.122C350.945 131.091 329.699 139.189 325.041 141.387C333.625 145.873 335.3 148.916 338.555 155.925C351.652 138.795 352.535 131.16 351.652 131.122Z" fill="#CCE6EE"/>
<path d="M264.872 158.655C264.166 158.625 226.266 163.457 220.477 167.129C229.061 171.615 230.735 174.657 233.991 181.667C247.087 164.537 265.755 158.693 264.872 158.655Z" fill="#CCE6EE"/>
</svg>
